Coordinates
version=1
nRows=14
nColumns=40
inDegrees=yes

Units are S.I. units (second, meters, Newtons, ...)
Angles are in degrees.

endheader
time	pelvis_tilt	pelvis_list	pelvis_rotation	pelvis_tx	pelvis_ty	pelvis_tz	hip_flexion_r	hip_adduction_r	hip_rotation_r	knee_angle_r	knee_angle_r_beta	ankle_angle_r	subtalar_angle_r	mtp_angle_r	hip_flexion_l	hip_adduction_l	hip_rotation_l	knee_angle_l	knee_angle_l_beta	ankle_angle_l	subtalar_angle_l	mtp_angle_l	lumbar_extension	lumbar_bending	lumbar_rotation	arm_flex_r	arm_add_r	arm_rot_r	elbow_flex_r	pro_sup_r	wrist_flex_r	wrist_dev_r	arm_flex_l	arm_add_l	arm_rot_l	elbow_flex_l	pro_sup_l	wrist_flex_l	wrist_dev_l
     35.86500000	     -6.16919423	     -4.78038035	     -5.77436402	      1.09063825	      0.92850350	      0.41832535	     26.16048911	     -1.26778318	    -11.83018274	     11.81133356	     11.81133356	      2.16020099	      8.11736443	      8.21399798	      7.85723014	     -7.15430690	    -13.14806814	     17.30272788	     17.30272788	     14.87827550	    -11.63344528	     -3.39916737	    -10.91778671	      5.23860971	      0.97294273	     -6.35648781	    -13.50326459	     -9.34017495	     26.73068867	     46.81622577	      0.00000000	      0.00000000	     20.58587490	    -21.13803602	     -8.38432743	     75.22516366	     47.28610896	      0.00000000	      0.00000000
     35.87750000	     -6.24227244	     -4.65669914	     -5.73386375	      1.09215647	      0.92767433	      0.42012450	     25.75041539	     -1.12445068	    -12.17579850	     11.46436989	     11.46436989	      2.03660761	      8.16788100	      8.26511074	      7.35308591	     -7.07689390	    -13.12259756	     17.06587984	     17.06587984	     15.14795486	    -11.46652261	     -3.46309634	    -10.64577316	      5.18177781	      0.81115221	     -6.73867640	    -13.42093898	     -9.33590357	     26.64991958	     46.81396038	      0.00000000	      0.00000000	     20.70207806	    -21.15317977	     -8.37947447	     75.32855249	     47.29085240	      0.00000000	      0.00000000
     35.89000000	     -6.04177083	     -4.60624543	     -5.75216111	      1.09408895	      0.92726335	      0.42210814	     25.01867459	     -0.94737847	    -12.48401427	     11.47867552	     11.47867552	      1.81635884	      8.23066495	      7.59562840	      6.37071933	     -7.04919223	    -13.33744051	     16.58507683	     16.58507683	     15.49594759	    -11.05958807	     -3.36465488	    -10.68366596	      5.16571438	      0.87826848	     -6.91149570	    -13.41799754	     -9.32410982	     26.82719588	     46.79685139	      0.00000000	      0.00000000	     20.76857866	    -20.99353125	     -8.20251894	     75.39382873	     47.29113703	      0.00000000	      0.00000000
     35.90250000	     -6.16661462	     -4.50781238	     -5.71914658	      1.09590942	      0.92625390	      0.42410890	     24.60687007	     -0.83239242	    -12.62115330	     11.66877137	     11.66877137	      1.78968125	      8.10775644	      7.55229088	      6.04532882	     -7.04593657	    -13.32527702	     16.62222622	     16.62222622	     15.72687230	    -11.12620676	     -3.43079836	    -10.26361447	      5.16519109	      0.85343745	     -6.91203169	    -13.40010479	     -9.32409469	     26.84219791	     46.79589876	      0.00000000	      0.00000000	     20.77139948	    -20.95150322	     -8.18094806	     75.40746321	     47.29027530	      0.00000000	      0.00000000
     35.91500000	     -5.86955287	     -4.43616872	     -5.50763169	      1.09821218	      0.92531706	      0.42612762	     24.41104201	     -0.90568693	    -12.40623536	     13.39259650	     13.39259650	      2.01633420	      6.83385549	      5.37291918	      5.16662478	     -7.02117623	    -13.21748899	     16.52596784	     16.52596784	     16.41670863	    -10.81500471	     -3.07010212	    -10.31710112	      5.17118200	      0.67862509	     -7.01850181	    -13.30370989	     -9.28819200	     27.08067378	     46.77365830	      0.00000000	      0.00000000	     20.65218215	    -20.70165229	     -7.85181196	     75.03235633	     47.27299154	      0.00000000	      0.00000000
     35.92750000	     -5.66162595	     -4.44303417	     -5.29822603	      1.10063193	      0.92429097	      0.42834028	     23.65459333	     -0.70960005	    -11.93622704	     13.77069045	     13.77069045	      0.53291408	      5.40360538	     -0.60837182	      4.61427659	     -7.18123869	    -13.12166031	     16.96162033	     16.96162033	     17.75320215	    -10.26062665	     -1.26375478	    -10.19652749	      5.26439520	      0.88506139	     -7.38491654	    -13.31433855	     -9.11692445	     27.77954361	     46.69044983	      0.00000000	      0.00000000	     20.89667549	    -20.40844203	     -7.03656818	     74.27232770	     47.26478371	      0.00000000	      0.00000000
     35.94000000	     -5.42522110	     -4.52112477	     -5.07270943	      1.10306333	      0.92345186	      0.43049422	     23.19109949	     -0.61046397	    -11.79737558	     14.91435927	     14.91435927	      1.16636427	      4.82988310	     -1.15877449	      3.94885263	     -7.37176866	    -12.88886027	     17.14376731	     17.14376731	     18.14403233	    -10.33215203	     -1.27018316	    -10.15790107	      5.46372955	      0.79879830	     -7.16313699	    -13.31983401	     -9.10672088	     27.87674898	     46.68474020	      0.00000000	      0.00000000	     20.61328936	    -20.14624532	     -6.91332764	     74.07015245	     47.25563600	      0.00000000	      0.00000000
     35.95250000	     -5.20268829	     -4.56428060	     -4.82960884	      1.10551624	      0.92262465	      0.43269132	     22.80956658	     -0.55107738	    -11.53868148	     16.07875510	     16.07875510	      1.88529845	      4.09449607	     -1.77337589	      3.38205641	     -7.55491625	    -12.64396418	     17.47486488	     17.47486488	     18.54137179	    -10.47208082	     -1.19194386	    -10.09321447	      5.64422701	      0.74998919	     -6.85443647	    -13.30670674	     -9.08371157	     27.99463522	     46.67819671	      0.00000000	      0.00000000	     20.26057336	    -19.83895070	     -6.77891585	     73.77021682	     47.24305098	      0.00000000	      0.00000000
     35.96500000	     -5.02540687	     -4.54406555	     -4.61050255	      1.10776559	      0.92178630	      0.43498761	     22.68850755	     -0.52573429	    -10.99289004	     17.46375856	     17.46375856	      2.61088361	      2.90704761	     -2.55609742	      3.06408945	     -7.71985149	    -12.31713784	     18.15328831	     18.15328831	     18.98441888	    -10.68427582	     -0.83421722	     -9.96185592	      5.72180239	      0.67604607	     -6.42936916	    -13.27614198	     -9.02237126	     28.13803147	     46.66647099	      0.00000000	      0.00000000	     19.89318304	    -19.53045721	     -6.68117018	     73.22280963	     47.23216312	      0.00000000	      0.00000000
     35.97750000	     -4.87367185	     -4.61371304	     -4.37380898	      1.10999149	      0.92116564	      0.43735031	     22.46446529	     -0.37587040	    -10.49462655	     18.49818310	     18.49818310	      3.27498460	      1.81775261	     -3.23846674	      2.91606389	     -8.02871021	    -11.97119690	     19.10007119	     19.10007119	     19.48575934	    -10.97471141	     -0.26530026	     -9.83214479	      5.91737751	      0.66876084	     -5.91746090	    -13.27384527	     -8.91665498	     28.25687123	     46.65139560	      0.00000000	      0.00000000	     19.44779383	    -19.09174985	     -6.62348686	     72.52578485	     47.22385759	      0.00000000	      0.00000000
     35.99000000	     -4.63835077	     -4.71182706	     -4.14806721	      1.11217492	      0.92091705	      0.43974001	     22.12051310	     -0.22530435	    -10.21249486	     19.38549529	     19.38549529	      4.01471874	      1.10184950	     -3.73714468	      2.80738463	     -8.40622569	    -11.63010368	     20.27594203	     20.27594203	     19.76094393	    -11.33686472	      0.08626420	     -9.84051972	      6.16266200	      0.74274416	     -5.28957958	    -13.30943383	     -8.82488889	     28.40394936	     46.63862011	      0.00000000	      0.00000000	     18.93880250	    -18.64758428	     -6.60189263	     71.88582647	     47.21631528	      0.00000000	      0.00000000
     36.00250000	     -4.42938639	     -4.80729136	     -3.97765900	      1.11426232	      0.92095114	      0.44228065	     21.75326809	     -0.01920334	     -9.84260421	     20.08630747	     20.08630747	      4.72906908	      0.35752988	     -4.03706500	      2.91697016	     -8.83579986	    -11.32424202	     21.82586960	     21.82586960	     20.25417608	    -11.64704096	      1.20254769	     -9.81262263	      6.39400030	      0.83616472	     -4.47169172	    -13.41199626	     -8.45257024	     28.34548323	     46.59951045	      0.00000000	      0.00000000	     18.43425978	    -17.95758206	     -7.01190837	     70.78433222	     47.25421743	      0.00000000	      0.00000000
     36.01500000	     -4.02824063	     -4.75320471	     -3.83115100	      1.11645414	      0.92163400	      0.44474113	     21.05165748	     -0.01619804	     -9.70837363	     20.51730644	     20.51730644	      5.44722414	      0.22077560	     -4.31599830	      2.76559637	     -9.07777690	    -11.11383016	     23.20414408	     23.20414408	     19.99599223	    -12.09238460	      1.08389498	    -10.03919362	      6.40441757	      1.10542530	     -3.74768759	    -13.38501325	     -8.42689850	     28.60259643	     46.59192790	      0.00000000	      0.00000000	     17.60918345	    -17.36611890	     -6.80139404	     70.39259916	     47.22859067	      0.00000000	      0.00000000
     36.02750000	     -4.04779433	     -4.89744286	     -3.57491759	      1.11794422	      0.92158784	      0.44725785	     20.95061622	      0.19321731	     -9.71866197	     21.16066069	     21.16066069	      6.20014121	     -0.25693666	     -4.25981664	      3.77042152	     -9.68713979	    -10.48655005	     25.74902013	     25.74902013	     19.52816893	    -13.14990231	      0.56174060	     -9.82638808	      6.69470503	      0.91762017	     -2.65025099	    -13.47017186	     -8.22259261	     28.83902083	     46.56402693	      0.00000000	      0.00000000	     16.94112526	    -17.00722593	     -7.32607820	     69.19760803	     47.25771690	      0.00000000	      0.00000000
